#!OML:ASF H:\Terrain\Patient Classification 1\Takeo\Monday\TakeoMonday.ASF
:FULLY-SPECIFIED
:DEGREES
1467
root 8.86985 11.2188 -2.45702 25.0605 25.7391 11.9577
lowerback 46.7407 -5.64956 10.7566
upperback 17.9758 -0.70469 5.99276
thorax 0.31215 0.276183 1.65162
lowerneck -28.2962 -9.34692 -14.8293
upperneck 5.42522 -7.43787 2.14688
head 6.55912 -3.79459 1.94815
rclavicle 1.59028e-014 1.61761e-014
rhumerus 41.2386 15.1613 -26.8515
rradius 54.6656
rwrist 10.0731
rhand -41.6432 56.2455
rfingers 7.12502
rthumb -14.5514 26.7758
lclavicle 1.59028e-014 1.61761e-014
lhumerus -12.1321 -4.69794 96.535
lradius 67.3462
lwrist 34.0139
lhand -29.375 10.2723
lfingers 7.12502
lthumb -2.71383 40.2348
rfemur -98.682 -19.5454 7.59123
rtibia 110.733
rfoot -27.1908 -13.7419
rtoes -0.168773
lfemur -84.5581 -12.9229 -37.698
ltibia 111.56
lfoot -37.5508 23.9282
ltoes -10.6655
1468
root 8.89039 11.214 -2.4692 25.4232 25.987 12.1796
lowerback 46.0741 -6.00646 11.2252
upperback 17.8751 -1.04847 5.67571
thorax 0.329644 0.170039 1.1964
lowerneck -28.3809 -9.34508 -15.0186
upperneck 5.47576 -7.45025 2.85417
head 6.62578 -3.73903 2.21143
rclavicle 1.90833e-014 -1.1281e-013
rhumerus 40.7733 15.0473 -27.5607
rradius 55.2588
rwrist 10.5757
rhand -41.6029 56.9706
rfingers 7.12502
rthumb -14.5126 27.4982
lclavicle 1.90833e-014 -1.1281e-013
lhumerus -12.1211 -4.69025 96.2114
lradius 67.6671
lwrist 34.1124
lhand -29.0978 10.712
lfingers 7.12502
lthumb -2.44614 40.6777
rfemur -98.9071 -19.9791 7.80406
rtibia 110.542
rfoot -26.5506 -14.789
rtoes -4.24115
lfemur -84.9767 -13.6248 -37.7356
ltibia 111.412
lfoot -37.1191 24.3947
ltoes -11.277
1469
root 8.88365 11.2487 -2.46012 24.9381 25.8426 11.8073
lowerback 46.3445 -5.94725 11.3083
upperback 17.8147 -0.921832 5.51427
thorax 0.226381 0.239209 0.955639
lowerneck -28.4063 -9.3539 -14.8967
upperneck 5.2753 -7.53692 3.09126
head 6.57418 -3.74906 2.26459
rclavicle 2.8625e-014 3.42904e-015
rhumerus 40.387 14.936 -28.183
rradius 55.8195
rwrist 10.7358
rhand -42.0306 58.2343
rfingers 7.12502
rthumb -14.9246 28.7919
lclavicle 2.8625e-014 3.42904e-015
lhumerus -12.0631 -4.25964 96.1554
lradius 67.9995
lwrist 33.3765
lhand -28.836 11.0618
lfingers 7.12502
lthumb -2.19333 41.0303
rfemur -98.1442 -19.3472 7.91017
rtibia 110.25
rfoot -26.6628 -15.1921
rtoes -3.86684
lfemur -84.5434 -13.1939 -37.3989
ltibia 111.183
lfoot -37.3625 24.1922
ltoes -12.0958
1470
root 8.89559 11.2966 -2.47274 25.0955 25.7506 11.9179
lowerback 45.9685 -6.00245 11.446
upperback 17.763 -1.01853 5.24001
thorax 0.231566 0.22289 0.618285
lowerneck -28.6307 -9.25676 -14.3581
upperneck 5.25845 -7.50852 2.70502
head 6.56203 -3.75614 2.05562
rclavicle -9.54166e-015 -2.9122e-014
rhumerus 40.0647 14.8458 -28.6947
rradius 56.5306
rwrist 9.90217
rhand -41.8214 59.6909
rfingers 7.12502
rthumb -14.7231 30.2337
lclavicle -9.54166e-015 -2.9122e-014
lhumerus -11.9569 -3.87736 96.2425
lradius 68.1193
lwrist 32.5597
lhand -29.3391 10.938
lfingers 7.12502
lthumb -2.67919 40.9009
rfemur -98.1162 -19.2979 7.39619
rtibia 109.81
rfoot -26.5772 -14.7229
rtoes -2.87772
lfemur -84.2711 -13.2851 -37.4315
ltibia 110.651
lfoot -37.3597 24.0657
ltoes -12.6269
1471
root 8.9 11.3363 -2.46679 24.9001 25.6767 12.0068
lowerback 45.9931 -6.05156 11.4762
upperback 17.6711 -1.07429 4.99346
thorax 0.122664 0.212519 0.362524
lowerneck -28.8292 -9.18442 -13.984
upperneck 5.59848 -7.48419 2.50975
head 6.68306 -3.76248 1.92888
rclavicle 1.59028e-014 -7.7526e-015
rhumerus 39.5812 14.8258 -29.2085
rradius 57.3845
rwrist 8.91244
rhand -40.9708 59.3388
rfingers 7.12502
rthumb -13.9035 29.8236
lclavicle 1.59028e-014 -7.7526e-015
lhumerus -11.9901 -4.41839 95.9292
lradius 67.9533
lwrist 32.8761
lhand -29.8017 9.93234
lfingers 7.12502
lthumb -3.12595 39.8892
rfemur -97.4542 -19.1952 7.458
rtibia 109.561
rfoot -26.499 -15.3973
rtoes -6.00061
lfemur -83.6091 -13.1747 -37.5323
ltibia 110.265
lfoot -37.6605 23.5006
ltoes -11.6823
1472
root 8.90163 11.3849 -2.4678 24.6265 25.6266 11.8016
lowerback 46.0505 -6.09876 11.6882
upperback 17.5098 -1.0508 4.75974
thorax -0.0542665 0.241087 0.0146267
lowerneck -28.9156 -9.20469 -13.9582
upperneck 6.1044 -7.55773 2.87612
head 6.88964 -3.776 2.02845
rclavicle -8.90555e-014 4.69132e-014
rhumerus 38.9057 14.8243 -29.8277
rradius 58.2112
rwrist 9.32334
rhand -41.6063 58.3047
rfingers 7.12502
rthumb -14.5159 28.8325
lclavicle -8.90555e-014 4.69132e-014
lhumerus -12.0605 -5.39654 95.3089
lradius 67.7841
lwrist 33.6719
lhand -29.9085 9.28484
lfingers 7.12502
lthumb -3.22913 39.2401
rfemur -96.6969 -18.7777 7.4549
rtibia 109.059
rfoot -26.0087 -16.0256
rtoes -7.61772
lfemur -83.1708 -12.9168 -37.3002
ltibia 109.852
lfoot -37.8022 22.5493
ltoes -8.38576
1473
root 8.90915 11.4217 -2.47802 25.0837 25.7592 11.4367
lowerback 44.1251 -5.96309 12.0564
upperback 18.2303 -1.17065 4.77704
thorax 0.115878 0.261157 -0.4688
lowerneck -28.6569 -9.11975 -13.8253
upperneck 6.06667 -7.60125 3.29096
head 6.86014 -3.75491 2.15163
rclavicle -1.59028e-014 -4.90004e-014
rhumerus 38.3031 14.702 -30.555
rradius 58.9021
rwrist 10.7821
rhand -43.2656 58.2508
rfingers 7.12502
rthumb -16.1141 28.9007
lclavicle -1.59028e-014 -4.90004e-014
lhumerus -12.0046 -5.8435 94.8511
lradius 67.8283
lwrist 33.9486
lhand -30.2934 9.95058
lfingers 7.12502
lthumb -3.6008 39.8999
rfemur -97.0663 -18.5919 7.75798
rtibia 108.621
rfoot -25.5394 -16.2213
rtoes -8.88726
lfemur -83.8452 -13.0492 -36.6937
ltibia 109.502
lfoot -37.4348 22.1719
ltoes -5.83874
1474
root 8.90069 11.5087 -2.4686 24.4287 25.8462 10.6848
lowerback 44.2954 -5.96518 12.4133
upperback 18.1598 -1.02174 4.6859
thorax 0.0201984 0.350076 -0.783449
lowerneck -28.1365 -8.90151 -13.2493
upperneck 5.54745 -7.59648 3.21352
head 6.59016 -3.73826 2.06398
rclavicle -7.31528e-014 -9.34288e-015
rhumerus 37.8219 14.4885 -31.3999
rradius 59.7292
rwrist 11.4127
rhand -43.6122 58.4483
rfingers 7.12502
rthumb -16.4478 29.1256
lclavicle -7.31528e-014 -9.34288e-015
lhumerus -12.0091 -5.91913 94.4994
lradius 68.142
lwrist 34.0286
lhand -30.1529 10.7982
lfingers 7.12502
lthumb -3.46511 40.7498
rfemur -96.2056 -17.8117 8.24989
rtibia 108.177
rfoot -25.4784 -16.8282
rtoes -10.1712
lfemur -83.1593 -12.492 -35.9987
ltibia 109.052
lfoot -37.137 22.2085
ltoes -6.32958
1475
root 8.89843 11.5828 -2.46089 23.5975 25.7753 10.0269
lowerback 45.5717 -6.16024 12.8975
upperback 17.2541 -0.781895 4.28555
thorax -0.171504 0.447717 -1.13564
lowerneck -27.71 -8.7401 -12.4606
upperneck 5.18897 -7.67326 2.79084
head 6.3712 -3.79302 1.81256
rclavicle -1.59028e-014 -2.28602e-014
rhumerus 37.3041 14.1842 -32.2812
rradius 60.8018
rwrist 10.8846
rhand -41.7899 58.0169
rfingers 7.12502
rthumb -14.6928 28.5576
lclavicle -1.59028e-014 -2.28602e-014
lhumerus -12.1223 -6.153 94.1751
lradius 68.4121
lwrist 34.3196
lhand -29.7356 10.3167
lfingers 7.12502
lthumb -3.06214 40.2744
rfemur -94.6091 -16.9845 8.36564
rtibia 107.499
rfoot -26.2522 -16.3961
rtoes -7.54492
lfemur -82.2891 -11.8566 -35.5432
ltibia 108.609
lfoot -36.7579 22.4011
ltoes -7.8843
1476
root 8.90739 11.6756 -2.46698 23.2507 25.3884 9.99683
lowerback 45.6746 -6.02189 12.8506
upperback 17.1714 -0.656157 3.9864
thorax -0.280788 0.518057 -1.47467
lowerneck -27.2484 -8.65037 -11.6564
upperneck 5.00481 -7.83094 2.22776
head 6.20384 -3.90427 1.50032
rclavicle 2.22639e-014 6.97734e-014
rhumerus 36.6729 13.9205 -33.0954
rradius 61.7967
rwrist 10.3768
rhand -39.8314 56.9094
rfingers 7.12502
rthumb -12.8053 27.3222
lclavicle 2.22639e-014 6.97734e-014
lhumerus -12.2676 -6.6941 93.9244
lradius 68.3787
lwrist 34.4028
lhand -29.8973 9.7677
lfingers 7.12502
lthumb -3.21831 39.7232
rfemur -93.7719 -16.5403 8.02024
rtibia 107.029
rfoot -26.9502 -15.2418
rtoes -3.14196
lfemur -81.3582 -11.4181 -35.6777
ltibia 107.819
lfoot -36.8273 22.4288
ltoes -8.98947
